@@ -1,57 +1,212 @@
<mxfile host="app.diagrams.net" modified="2024-04-08T06:00:21.968Z" agent="Mozilla/5.0 (Windows NT 10.0; Win64; x64) AppleWebKit/537.36 (KHTML, like Gecko) Chrome/123.0.0.0 Safari/537.36" etag="8ynKu1pR7rg2V36yqKtk" version="24.2.2" type="github">
<mxfile host="app.diagrams.net" modified="2024-04-08T06:07:54.317Z" agent="Mozilla/5.0 (Windows NT 10.0; Win64; x64) AppleWebKit/537.36 (KHTML, like Gecko) Chrome/123.0.0.0 Safari/537.36" etag="EvyLFfna0EXrFyWsa_QI" version="24.2.2" type="github">
  <diagram name="페이지-1" id="P92IDIxB-07LZbA0uTBh">
    <mxGraphModel dx="896" dy="466" grid="1" gridSize="10" guides="1" tooltips="1" connect="1" arrows="1" fold="1" page="1" pageScale="1" pageWidth="827" pageHeight="1169" math="0" shadow="0">
    <mxGraphModel dx="1687" dy="878" grid="1" gridSize="10" guides="1" tooltips="1" connect="1" arrows="1" fold="1" page="1" pageScale="1" pageWidth="827" pageHeight="1169" math="0" shadow="0">
      <root>
        <mxCell id="0" />
        <mxCell id="1" parent="0" />
        <mxCell id="VhF9RSgYSfxIK7Hk7AZq-1" value="회원가입" style="ellipse;whiteSpace=wrap;html=1;" vertex="1" parent="1">
        <mxCell id="VhF9RSgYSfxIK7Hk7AZq-1" value="회원가입" style="ellipse;whiteSpace=wrap;html=1;" parent="1" vertex="1">
          <mxGeometry x="260" y="500" width="120" height="50" as="geometry" />
        </mxCell>
        <mxCell id="VhF9RSgYSfxIK7Hk7AZq-2" value="로그인" style="ellipse;whiteSpace=wrap;html=1;" vertex="1" parent="1">
        <mxCell id="VhF9RSgYSfxIK7Hk7AZq-2" value="로그인" style="ellipse;whiteSpace=wrap;html=1;" parent="1" vertex="1">
          <mxGeometry x="260" y="560" width="120" height="50" as="geometry" />
        </mxCell>
        <mxCell id="VhF9RSgYSfxIK7Hk7AZq-3" value="닉네임 변경" style="ellipse;whiteSpace=wrap;html=1;" vertex="1" parent="1">
        <mxCell id="VhF9RSgYSfxIK7Hk7AZq-3" value="닉네임 변경" style="ellipse;whiteSpace=wrap;html=1;" parent="1" vertex="1">
          <mxGeometry x="260" y="620" width="120" height="50" as="geometry" />
        </mxCell>
        <mxCell id="VhF9RSgYSfxIK7Hk7AZq-4" value="수준 변경" style="ellipse;whiteSpace=wrap;html=1;" vertex="1" parent="1">
        <mxCell id="VhF9RSgYSfxIK7Hk7AZq-4" value="수준 변경" style="ellipse;whiteSpace=wrap;html=1;" parent="1" vertex="1">
          <mxGeometry x="260" y="680" width="120" height="50" as="geometry" />
        </mxCell>
        <mxCell id="VhF9RSgYSfxIK7Hk7AZq-5" value="라이센스 결제 진행" style="ellipse;whiteSpace=wrap;html=1;" vertex="1" parent="1">
        <mxCell id="VhF9RSgYSfxIK7Hk7AZq-5" value="라이센스 결제 진행" style="ellipse;whiteSpace=wrap;html=1;" parent="1" vertex="1">
          <mxGeometry x="260" y="740" width="120" height="50" as="geometry" />
        </mxCell>
        <mxCell id="VhF9RSgYSfxIK7Hk7AZq-6" value="문제 생성" style="ellipse;whiteSpace=wrap;html=1;" vertex="1" parent="1">
        <mxCell id="VhF9RSgYSfxIK7Hk7AZq-6" value="문제 생성" style="ellipse;whiteSpace=wrap;html=1;" parent="1" vertex="1">
          <mxGeometry x="260" y="800" width="120" height="50" as="geometry" />
        </mxCell>
        <mxCell id="VhF9RSgYSfxIK7Hk7AZq-7" value="문제 조회" style="ellipse;whiteSpace=wrap;html=1;" vertex="1" parent="1">
        <mxCell id="VhF9RSgYSfxIK7Hk7AZq-7" value="문제 조회" style="ellipse;whiteSpace=wrap;html=1;" parent="1" vertex="1">
          <mxGeometry x="260" y="860" width="120" height="50" as="geometry" />
        </mxCell>
        <mxCell id="VhF9RSgYSfxIK7Hk7AZq-8" value="문제에 해당하는 자신의 답변 이력 조회" style="ellipse;whiteSpace=wrap;html=1;" vertex="1" parent="1">
        <mxCell id="VhF9RSgYSfxIK7Hk7AZq-8" value="문제에 해당하는 자신의 답변 이력 조회" style="ellipse;whiteSpace=wrap;html=1;" parent="1" vertex="1">
          <mxGeometry x="260" y="920" width="120" height="50" as="geometry" />
        </mxCell>
        <mxCell id="VhF9RSgYSfxIK7Hk7AZq-9" value="문제 정답 확인" style="ellipse;whiteSpace=wrap;html=1;" vertex="1" parent="1">
        <mxCell id="VhF9RSgYSfxIK7Hk7AZq-9" value="문제 정답 확인" style="ellipse;whiteSpace=wrap;html=1;" parent="1" vertex="1">
          <mxGeometry x="400" y="500" width="120" height="50" as="geometry" />
        </mxCell>
        <mxCell id="VhF9RSgYSfxIK7Hk7AZq-10" value="문제당 답변 기회 몇번 있는지 확인" style="ellipse;whiteSpace=wrap;html=1;" vertex="1" parent="1">
        <mxCell id="VhF9RSgYSfxIK7Hk7AZq-10" value="문제당 답변 기회 몇번 있는지 확인" style="ellipse;whiteSpace=wrap;html=1;" parent="1" vertex="1">
          <mxGeometry x="400" y="560" width="120" height="50" as="geometry" />
        </mxCell>
        <mxCell id="VhF9RSgYSfxIK7Hk7AZq-11" value="문제 답변 제출" style="ellipse;whiteSpace=wrap;html=1;" vertex="1" parent="1">
        <mxCell id="VhF9RSgYSfxIK7Hk7AZq-11" value="문제 답변 제출" style="ellipse;whiteSpace=wrap;html=1;" parent="1" vertex="1">
          <mxGeometry x="400" y="620" width="120" height="50" as="geometry" />
        </mxCell>
        <mxCell id="VhF9RSgYSfxIK7Hk7AZq-12" value="문제 생성 알림 받기" style="ellipse;whiteSpace=wrap;html=1;" vertex="1" parent="1">
        <mxCell id="VhF9RSgYSfxIK7Hk7AZq-12" value="문제 생성 알림 받기" style="ellipse;whiteSpace=wrap;html=1;" parent="1" vertex="1">
          <mxGeometry x="400" y="680" width="120" height="50" as="geometry" />
        </mxCell>
        <mxCell id="VhF9RSgYSfxIK7Hk7AZq-13" value="" style="ellipse;whiteSpace=wrap;html=1;" vertex="1" parent="1">
        <mxCell id="VhF9RSgYSfxIK7Hk7AZq-13" value="계정 삭제" style="ellipse;whiteSpace=wrap;html=1;" parent="1" vertex="1">
          <mxGeometry x="400" y="740" width="120" height="50" as="geometry" />
        </mxCell>
        <mxCell id="VhF9RSgYSfxIK7Hk7AZq-14" value="" style="ellipse;whiteSpace=wrap;html=1;" vertex="1" parent="1">
        <mxCell id="VhF9RSgYSfxIK7Hk7AZq-14" value="" style="ellipse;whiteSpace=wrap;html=1;" parent="1" vertex="1">
          <mxGeometry x="400" y="800" width="120" height="50" as="geometry" />
        </mxCell>
        <mxCell id="VhF9RSgYSfxIK7Hk7AZq-15" value="" style="ellipse;whiteSpace=wrap;html=1;" vertex="1" parent="1">
        <mxCell id="VhF9RSgYSfxIK7Hk7AZq-15" value="" style="ellipse;whiteSpace=wrap;html=1;" parent="1" vertex="1">
          <mxGeometry x="400" y="860" width="120" height="50" as="geometry" />
        </mxCell>
        <mxCell id="VhF9RSgYSfxIK7Hk7AZq-16" value="" style="ellipse;whiteSpace=wrap;html=1;" vertex="1" parent="1">
        <mxCell id="VhF9RSgYSfxIK7Hk7AZq-16" value="" style="ellipse;whiteSpace=wrap;html=1;" parent="1" vertex="1">
          <mxGeometry x="400" y="920" width="120" height="50" as="geometry" />
        </mxCell>
        <mxCell id="j_wqAF3bPt4c0Rr6Cg5Z-1" value="Table" style="shape=table;startSize=30;container=1;collapsible=0;childLayout=tableLayout;strokeColor=default;fontSize=16;" vertex="1" parent="1">
          <mxGeometry x="590" y="500" width="430" height="470" as="geometry" />
        </mxCell>
        <mxCell id="j_wqAF3bPt4c0Rr6Cg5Z-39" style="shape=tableRow;horizontal=0;startSize=0;swimlaneHead=0;swimlaneBody=0;strokeColor=inherit;top=0;left=0;bottom=0;right=0;collapsible=0;dropTarget=0;fillColor=none;points=[[0,0.5],[1,0.5]];portConstraint=eastwest;fontSize=16;" vertex="1" parent="j_wqAF3bPt4c0Rr6Cg5Z-1">
          <mxGeometry y="30" width="430" height="40" as="geometry" />
        </mxCell>
        <mxCell id="j_wqAF3bPt4c0Rr6Cg5Z-40" style="shape=partialRectangle;html=1;whiteSpace=wrap;connectable=0;strokeColor=inherit;overflow=hidden;fillColor=none;top=0;left=0;bottom=0;right=0;pointerEvents=1;fontSize=16;" vertex="1" parent="j_wqAF3bPt4c0Rr6Cg5Z-39">
          <mxGeometry width="120" height="40" as="geometry">
            <mxRectangle width="120" height="40" as="alternateBounds" />
          </mxGeometry>
        </mxCell>
        <mxCell id="j_wqAF3bPt4c0Rr6Cg5Z-41" style="shape=partialRectangle;html=1;whiteSpace=wrap;connectable=0;strokeColor=inherit;overflow=hidden;fillColor=none;top=0;left=0;bottom=0;right=0;pointerEvents=1;fontSize=16;" vertex="1" parent="j_wqAF3bPt4c0Rr6Cg5Z-39">
          <mxGeometry x="120" width="310" height="40" as="geometry">
            <mxRectangle width="310" height="40" as="alternateBounds" />
          </mxGeometry>
        </mxCell>
        <mxCell id="j_wqAF3bPt4c0Rr6Cg5Z-36" style="shape=tableRow;horizontal=0;startSize=0;swimlaneHead=0;swimlaneBody=0;strokeColor=inherit;top=0;left=0;bottom=0;right=0;collapsible=0;dropTarget=0;fillColor=none;points=[[0,0.5],[1,0.5]];portConstraint=eastwest;fontSize=16;" vertex="1" parent="j_wqAF3bPt4c0Rr6Cg5Z-1">
          <mxGeometry y="70" width="430" height="40" as="geometry" />
        </mxCell>
        <mxCell id="j_wqAF3bPt4c0Rr6Cg5Z-37" style="shape=partialRectangle;html=1;whiteSpace=wrap;connectable=0;strokeColor=inherit;overflow=hidden;fillColor=none;top=0;left=0;bottom=0;right=0;pointerEvents=1;fontSize=16;" vertex="1" parent="j_wqAF3bPt4c0Rr6Cg5Z-36">
          <mxGeometry width="120" height="40" as="geometry">
            <mxRectangle width="120" height="40" as="alternateBounds" />
          </mxGeometry>
        </mxCell>
        <mxCell id="j_wqAF3bPt4c0Rr6Cg5Z-38" style="shape=partialRectangle;html=1;whiteSpace=wrap;connectable=0;strokeColor=inherit;overflow=hidden;fillColor=none;top=0;left=0;bottom=0;right=0;pointerEvents=1;fontSize=16;" vertex="1" parent="j_wqAF3bPt4c0Rr6Cg5Z-36">
          <mxGeometry x="120" width="310" height="40" as="geometry">
            <mxRectangle width="310" height="40" as="alternateBounds" />
          </mxGeometry>
        </mxCell>
        <mxCell id="j_wqAF3bPt4c0Rr6Cg5Z-33" style="shape=tableRow;horizontal=0;startSize=0;swimlaneHead=0;swimlaneBody=0;strokeColor=inherit;top=0;left=0;bottom=0;right=0;collapsible=0;dropTarget=0;fillColor=none;points=[[0,0.5],[1,0.5]];portConstraint=eastwest;fontSize=16;" vertex="1" parent="j_wqAF3bPt4c0Rr6Cg5Z-1">
          <mxGeometry y="110" width="430" height="40" as="geometry" />
        </mxCell>
        <mxCell id="j_wqAF3bPt4c0Rr6Cg5Z-34" style="shape=partialRectangle;html=1;whiteSpace=wrap;connectable=0;strokeColor=inherit;overflow=hidden;fillColor=none;top=0;left=0;bottom=0;right=0;pointerEvents=1;fontSize=16;" vertex="1" parent="j_wqAF3bPt4c0Rr6Cg5Z-33">
          <mxGeometry width="120" height="40" as="geometry">
            <mxRectangle width="120" height="40" as="alternateBounds" />
          </mxGeometry>
        </mxCell>
        <mxCell id="j_wqAF3bPt4c0Rr6Cg5Z-35" style="shape=partialRectangle;html=1;whiteSpace=wrap;connectable=0;strokeColor=inherit;overflow=hidden;fillColor=none;top=0;left=0;bottom=0;right=0;pointerEvents=1;fontSize=16;" vertex="1" parent="j_wqAF3bPt4c0Rr6Cg5Z-33">
          <mxGeometry x="120" width="310" height="40" as="geometry">
            <mxRectangle width="310" height="40" as="alternateBounds" />
          </mxGeometry>
        </mxCell>
        <mxCell id="j_wqAF3bPt4c0Rr6Cg5Z-30" style="shape=tableRow;horizontal=0;startSize=0;swimlaneHead=0;swimlaneBody=0;strokeColor=inherit;top=0;left=0;bottom=0;right=0;collapsible=0;dropTarget=0;fillColor=none;points=[[0,0.5],[1,0.5]];portConstraint=eastwest;fontSize=16;" vertex="1" parent="j_wqAF3bPt4c0Rr6Cg5Z-1">
          <mxGeometry y="150" width="430" height="40" as="geometry" />
        </mxCell>
        <mxCell id="j_wqAF3bPt4c0Rr6Cg5Z-31" style="shape=partialRectangle;html=1;whiteSpace=wrap;connectable=0;strokeColor=inherit;overflow=hidden;fillColor=none;top=0;left=0;bottom=0;right=0;pointerEvents=1;fontSize=16;" vertex="1" parent="j_wqAF3bPt4c0Rr6Cg5Z-30">
          <mxGeometry width="120" height="40" as="geometry">
            <mxRectangle width="120" height="40" as="alternateBounds" />
          </mxGeometry>
        </mxCell>
        <mxCell id="j_wqAF3bPt4c0Rr6Cg5Z-32" style="shape=partialRectangle;html=1;whiteSpace=wrap;connectable=0;strokeColor=inherit;overflow=hidden;fillColor=none;top=0;left=0;bottom=0;right=0;pointerEvents=1;fontSize=16;" vertex="1" parent="j_wqAF3bPt4c0Rr6Cg5Z-30">
          <mxGeometry x="120" width="310" height="40" as="geometry">
            <mxRectangle width="310" height="40" as="alternateBounds" />
          </mxGeometry>
        </mxCell>
        <mxCell id="j_wqAF3bPt4c0Rr6Cg5Z-27" style="shape=tableRow;horizontal=0;startSize=0;swimlaneHead=0;swimlaneBody=0;strokeColor=inherit;top=0;left=0;bottom=0;right=0;collapsible=0;dropTarget=0;fillColor=none;points=[[0,0.5],[1,0.5]];portConstraint=eastwest;fontSize=16;" vertex="1" parent="j_wqAF3bPt4c0Rr6Cg5Z-1">
          <mxGeometry y="190" width="430" height="40" as="geometry" />
        </mxCell>
        <mxCell id="j_wqAF3bPt4c0Rr6Cg5Z-28" style="shape=partialRectangle;html=1;whiteSpace=wrap;connectable=0;strokeColor=inherit;overflow=hidden;fillColor=none;top=0;left=0;bottom=0;right=0;pointerEvents=1;fontSize=16;" vertex="1" parent="j_wqAF3bPt4c0Rr6Cg5Z-27">
          <mxGeometry width="120" height="40" as="geometry">
            <mxRectangle width="120" height="40" as="alternateBounds" />
          </mxGeometry>
        </mxCell>
        <mxCell id="j_wqAF3bPt4c0Rr6Cg5Z-29" style="shape=partialRectangle;html=1;whiteSpace=wrap;connectable=0;strokeColor=inherit;overflow=hidden;fillColor=none;top=0;left=0;bottom=0;right=0;pointerEvents=1;fontSize=16;" vertex="1" parent="j_wqAF3bPt4c0Rr6Cg5Z-27">
          <mxGeometry x="120" width="310" height="40" as="geometry">
            <mxRectangle width="310" height="40" as="alternateBounds" />
          </mxGeometry>
        </mxCell>
        <mxCell id="j_wqAF3bPt4c0Rr6Cg5Z-24" style="shape=tableRow;horizontal=0;startSize=0;swimlaneHead=0;swimlaneBody=0;strokeColor=inherit;top=0;left=0;bottom=0;right=0;collapsible=0;dropTarget=0;fillColor=none;points=[[0,0.5],[1,0.5]];portConstraint=eastwest;fontSize=16;" vertex="1" parent="j_wqAF3bPt4c0Rr6Cg5Z-1">
          <mxGeometry y="230" width="430" height="40" as="geometry" />
        </mxCell>
        <mxCell id="j_wqAF3bPt4c0Rr6Cg5Z-25" style="shape=partialRectangle;html=1;whiteSpace=wrap;connectable=0;strokeColor=inherit;overflow=hidden;fillColor=none;top=0;left=0;bottom=0;right=0;pointerEvents=1;fontSize=16;" vertex="1" parent="j_wqAF3bPt4c0Rr6Cg5Z-24">
          <mxGeometry width="120" height="40" as="geometry">
            <mxRectangle width="120" height="40" as="alternateBounds" />
          </mxGeometry>
        </mxCell>
        <mxCell id="j_wqAF3bPt4c0Rr6Cg5Z-26" style="shape=partialRectangle;html=1;whiteSpace=wrap;connectable=0;strokeColor=inherit;overflow=hidden;fillColor=none;top=0;left=0;bottom=0;right=0;pointerEvents=1;fontSize=16;" vertex="1" parent="j_wqAF3bPt4c0Rr6Cg5Z-24">
          <mxGeometry x="120" width="310" height="40" as="geometry">
            <mxRectangle width="310" height="40" as="alternateBounds" />
          </mxGeometry>
        </mxCell>
        <mxCell id="j_wqAF3bPt4c0Rr6Cg5Z-21" style="shape=tableRow;horizontal=0;startSize=0;swimlaneHead=0;swimlaneBody=0;strokeColor=inherit;top=0;left=0;bottom=0;right=0;collapsible=0;dropTarget=0;fillColor=none;points=[[0,0.5],[1,0.5]];portConstraint=eastwest;fontSize=16;" vertex="1" parent="j_wqAF3bPt4c0Rr6Cg5Z-1">
          <mxGeometry y="270" width="430" height="40" as="geometry" />
        </mxCell>
        <mxCell id="j_wqAF3bPt4c0Rr6Cg5Z-22" style="shape=partialRectangle;html=1;whiteSpace=wrap;connectable=0;strokeColor=inherit;overflow=hidden;fillColor=none;top=0;left=0;bottom=0;right=0;pointerEvents=1;fontSize=16;" vertex="1" parent="j_wqAF3bPt4c0Rr6Cg5Z-21">
          <mxGeometry width="120" height="40" as="geometry">
            <mxRectangle width="120" height="40" as="alternateBounds" />
          </mxGeometry>
        </mxCell>
        <mxCell id="j_wqAF3bPt4c0Rr6Cg5Z-23" style="shape=partialRectangle;html=1;whiteSpace=wrap;connectable=0;strokeColor=inherit;overflow=hidden;fillColor=none;top=0;left=0;bottom=0;right=0;pointerEvents=1;fontSize=16;" vertex="1" parent="j_wqAF3bPt4c0Rr6Cg5Z-21">
          <mxGeometry x="120" width="310" height="40" as="geometry">
            <mxRectangle width="310" height="40" as="alternateBounds" />
          </mxGeometry>
        </mxCell>
        <mxCell id="j_wqAF3bPt4c0Rr6Cg5Z-18" style="shape=tableRow;horizontal=0;startSize=0;swimlaneHead=0;swimlaneBody=0;strokeColor=inherit;top=0;left=0;bottom=0;right=0;collapsible=0;dropTarget=0;fillColor=none;points=[[0,0.5],[1,0.5]];portConstraint=eastwest;fontSize=16;" vertex="1" parent="j_wqAF3bPt4c0Rr6Cg5Z-1">
          <mxGeometry y="310" width="430" height="40" as="geometry" />
        </mxCell>
        <mxCell id="j_wqAF3bPt4c0Rr6Cg5Z-19" style="shape=partialRectangle;html=1;whiteSpace=wrap;connectable=0;strokeColor=inherit;overflow=hidden;fillColor=none;top=0;left=0;bottom=0;right=0;pointerEvents=1;fontSize=16;" vertex="1" parent="j_wqAF3bPt4c0Rr6Cg5Z-18">
          <mxGeometry width="120" height="40" as="geometry">
            <mxRectangle width="120" height="40" as="alternateBounds" />
          </mxGeometry>
        </mxCell>
        <mxCell id="j_wqAF3bPt4c0Rr6Cg5Z-20" style="shape=partialRectangle;html=1;whiteSpace=wrap;connectable=0;strokeColor=inherit;overflow=hidden;fillColor=none;top=0;left=0;bottom=0;right=0;pointerEvents=1;fontSize=16;" vertex="1" parent="j_wqAF3bPt4c0Rr6Cg5Z-18">
          <mxGeometry x="120" width="310" height="40" as="geometry">
            <mxRectangle width="310" height="40" as="alternateBounds" />
          </mxGeometry>
        </mxCell>
        <mxCell id="j_wqAF3bPt4c0Rr6Cg5Z-2" value="" style="shape=tableRow;horizontal=0;startSize=0;swimlaneHead=0;swimlaneBody=0;strokeColor=inherit;top=0;left=0;bottom=0;right=0;collapsible=0;dropTarget=0;fillColor=none;points=[[0,0.5],[1,0.5]];portConstraint=eastwest;fontSize=16;" vertex="1" parent="j_wqAF3bPt4c0Rr6Cg5Z-1">
          <mxGeometry y="350" width="430" height="40" as="geometry" />
        </mxCell>
        <mxCell id="j_wqAF3bPt4c0Rr6Cg5Z-3" value="" style="shape=partialRectangle;html=1;whiteSpace=wrap;connectable=0;strokeColor=inherit;overflow=hidden;fillColor=none;top=0;left=0;bottom=0;right=0;pointerEvents=1;fontSize=16;" vertex="1" parent="j_wqAF3bPt4c0Rr6Cg5Z-2">
          <mxGeometry width="120" height="40" as="geometry">
            <mxRectangle width="120" height="40" as="alternateBounds" />
          </mxGeometry>
        </mxCell>
        <mxCell id="j_wqAF3bPt4c0Rr6Cg5Z-4" value="" style="shape=partialRectangle;html=1;whiteSpace=wrap;connectable=0;strokeColor=inherit;overflow=hidden;fillColor=none;top=0;left=0;bottom=0;right=0;pointerEvents=1;fontSize=16;" vertex="1" parent="j_wqAF3bPt4c0Rr6Cg5Z-2">
          <mxGeometry x="120" width="310" height="40" as="geometry">
            <mxRectangle width="310" height="40" as="alternateBounds" />
          </mxGeometry>
        </mxCell>
        <mxCell id="j_wqAF3bPt4c0Rr6Cg5Z-6" value="" style="shape=tableRow;horizontal=0;startSize=0;swimlaneHead=0;swimlaneBody=0;strokeColor=inherit;top=0;left=0;bottom=0;right=0;collapsible=0;dropTarget=0;fillColor=none;points=[[0,0.5],[1,0.5]];portConstraint=eastwest;fontSize=16;" vertex="1" parent="j_wqAF3bPt4c0Rr6Cg5Z-1">
          <mxGeometry y="390" width="430" height="40" as="geometry" />
        </mxCell>
        <mxCell id="j_wqAF3bPt4c0Rr6Cg5Z-7" value="" style="shape=partialRectangle;html=1;whiteSpace=wrap;connectable=0;strokeColor=inherit;overflow=hidden;fillColor=none;top=0;left=0;bottom=0;right=0;pointerEvents=1;fontSize=16;" vertex="1" parent="j_wqAF3bPt4c0Rr6Cg5Z-6">
          <mxGeometry width="120" height="40" as="geometry">
            <mxRectangle width="120" height="40" as="alternateBounds" />
          </mxGeometry>
        </mxCell>
        <mxCell id="j_wqAF3bPt4c0Rr6Cg5Z-8" value="" style="shape=partialRectangle;html=1;whiteSpace=wrap;connectable=0;strokeColor=inherit;overflow=hidden;fillColor=none;top=0;left=0;bottom=0;right=0;pointerEvents=1;fontSize=16;" vertex="1" parent="j_wqAF3bPt4c0Rr6Cg5Z-6">
          <mxGeometry x="120" width="310" height="40" as="geometry">
            <mxRectangle width="310" height="40" as="alternateBounds" />
          </mxGeometry>
        </mxCell>
        <mxCell id="j_wqAF3bPt4c0Rr6Cg5Z-10" value="" style="shape=tableRow;horizontal=0;startSize=0;swimlaneHead=0;swimlaneBody=0;strokeColor=inherit;top=0;left=0;bottom=0;right=0;collapsible=0;dropTarget=0;fillColor=none;points=[[0,0.5],[1,0.5]];portConstraint=eastwest;fontSize=16;" vertex="1" parent="j_wqAF3bPt4c0Rr6Cg5Z-1">
          <mxGeometry y="430" width="430" height="40" as="geometry" />
        </mxCell>
        <mxCell id="j_wqAF3bPt4c0Rr6Cg5Z-11" value="" style="shape=partialRectangle;html=1;whiteSpace=wrap;connectable=0;strokeColor=inherit;overflow=hidden;fillColor=none;top=0;left=0;bottom=0;right=0;pointerEvents=1;fontSize=16;" vertex="1" parent="j_wqAF3bPt4c0Rr6Cg5Z-10">
          <mxGeometry width="120" height="40" as="geometry">
            <mxRectangle width="120" height="40" as="alternateBounds" />
          </mxGeometry>
        </mxCell>
        <mxCell id="j_wqAF3bPt4c0Rr6Cg5Z-12" value="" style="shape=partialRectangle;html=1;whiteSpace=wrap;connectable=0;strokeColor=inherit;overflow=hidden;fillColor=none;top=0;left=0;bottom=0;right=0;pointerEvents=1;fontSize=16;" vertex="1" parent="j_wqAF3bPt4c0Rr6Cg5Z-10">
          <mxGeometry x="120" width="310" height="40" as="geometry">
            <mxRectangle width="310" height="40" as="alternateBounds" />
          </mxGeometry>
        </mxCell>
        <mxCell id="j_wqAF3bPt4c0Rr6Cg5Z-14" value="사용자" style="shape=umlActor;verticalLabelPosition=bottom;verticalAlign=top;html=1;outlineConnect=0;" vertex="1" parent="1">
          <mxGeometry x="30" y="660" width="30" height="60" as="geometry" />
        </mxCell>
        <mxCell id="j_wqAF3bPt4c0Rr6Cg5Z-15" value="" style="endArrow=classic;html=1;rounded=0;" edge="1" parent="1">
          <mxGeometry width="50" height="50" relative="1" as="geometry">
            <mxPoint x="90" y="690" as="sourcePoint" />
            <mxPoint x="180" y="690" as="targetPoint" />
          </mxGeometry>
        </mxCell>
      </root>
    </mxGraphModel>
  </diagram>
